The Fighter (2010)

Director: David O. Russell

The Fighter is a 2010 biographical sports drama film directed by David O. Russell, and starring Mark Wahlberg, Christian Bale, Melissa Leo and Amy Adams. The film centers on the life of professional boxer "Irish" Micky Ward (Wahlberg) and his older half-brother Dicky Eklund (Bale). The film also stars Amy Adams as Micky's love interest, and Melissa Leo as Micky's and Dicky's mother. The Fighter is Russell and Wahlberg's third film collaboration, following Three Kings and I Heart Huckabees.

The film was released in select North American theaters on December 17, 2010 and was released in the United Kingdom on February 4, 2011. It was nominated for seven Academy Awards, including Best Picture and Best Director, winning the awards for Best Supporting Actor (Christian Bale) and Best Supporting Actress (Melissa Leo). It was the first film to win both awards since Hannah and Her Sisters in 1986.

The film was nominated for six Golden Globe Awards. Best Picture (Drama), Best Actor (Drama) for Wahlberg, Best Supporting Actress for Leo and Adams, Best Supporting Actor for Bale, and a nomination for Best Director for Russell. The film received three Chicago Film Critics award nominations, Best Supporting Actor for Christian Bale, and Best Supporting Actress nominations for Amy Adams and Melissa Leo. Christian Bale won a Satellite Award, the Critics' Choice Award, and the Golden Globe for Best Supporting Actor. Melissa Leo won the Golden Globe for Best Supporting Actress. Christian Bale won the National Board of Review Award for Best Supporting Actor The film received 7 Academy Award nominations, including Best Picture along with 3 acting nominations for Bale, Adams and Leo.

Sports Illustrated dubbed the film the best sports movie of the decade and "one of the best since Martin Scorsese backlit Robert De Niro's Jake LaMotta in Raging Bull.".

Media Info:
General
Complete name                    : J:\Seeding\The Fighter (2010)[DVDRip][big_dad_e™]\The Fighter (2010)[DVDRip][big_dad_e™].avi
Format                           : AVI
Format/Info                      : Audio Video Interleave
Format profile                   : OpenDML
File size                        : 1.11 GiB
Duration                         : 1h 55mn
Overall bit rate                 : 1 370 Kbps
Movie name                       : THE_FIGHTER.Title42.DVDRip
Writing application              : Lavf52.78.4
Original source form/Name        : THE_FIGHTER

Video
ID                               : 0
Format                           : MPEG-4 Visual
Format profile                   : Advanced Simple@L5
Format settings, BVOP            : 2
Format settings, QPel            : No
Format settings, GMC             : No warppoints
Format settings, Matrix          : Default (H.263)
Muxing mode                      : Packed bitstream
Codec ID                         : XVID
Codec ID/Hint                    : XviD
Duration                         : 1h 55mn
Bit rate                         : 153 Kbps
Width                            : 720 pixels
Height                           : 300 pixels
Display aspect ratio             : 2.40:1
Frame rate                       : 23.976 fps
Color space                      : YUV
Chroma subsampling               : 4:2:0
Bit depth                        : 8 bits
Scan type                        : Progressive
Compression mode                 : Lossy
Bits/(Pixel*Frame)               : 0.030
Stream size                      : 127 MiB (11%)
Writing library                  : XviD 

Audio
ID                               : 1
Format                           : MPEG Audio
Format version                   : Version 1
Format profile                   : Layer 3
Mode                             : Joint stereo
Mode extension                   : MS Stereo
Codec ID                         : 55
Codec ID/Hint                    : MP3
Duration                         : 1h 55mn
Bit rate mode                    : Constant
Bit rate                         : 320 Kbps
Channel(s)                       : 2 channels
Sampling rate                    : 48.0 KHz
Compression mode                 : Lossy
Stream size                      : 21.9 MiB (2%)
Alignment                        : Aligned on interleaves
Interleave, duration             : 38 ms (0.92 video frame)

File Scan:
Malwarebytes' Anti-Malware 1.50.1.1100
www.malwarebytes.org

Database version: 6206
3/29/2011 5:38:02 PM
mbam-log-2011-03-29 (17-38-02).txt

Scan type: Quick scan
Objects scanned: 5
Time elapsed: 28 second(s)

Memory Processes Infected: 0
Memory Modules Infected: 0
Registry Keys Infected: 0
Registry Values Infected: 0
Registry Data Items Infected: 0
Folders Infected: 0
Files Infected: 0

Memory Processes Infected:
(No malicious items detected)

Memory Modules Infected:
(No malicious items detected)

Registry Keys Infected:
(No malicious items detected)

Registry Values Infected:
(No malicious items detected)

Registry Data Items Infected:
(No malicious items detected)

Folders Infected:
(No malicious items detected)

Files Infected:
(No malicious items detected)

When using TPB please read these important notes:
  
01- Anti-malware apps may warn about keygens, patches, cracks, etc., because of 
    their capabilities, (generating codes, etc.). Sometimes they're added to 
    the virus/spyware database and will be detected as malware. If you don't trust
    the keygens, patches, cracks, etc., don't use them. 
    
02- Before running .exe-files, keygens, patches, cracks, etc., always check first 
    if they can be unpacked. Often some third party added a virus to the 
    original file, repacked it and uploaded it again.

03- Letting anti-malware apps send scan results to their companies can cause
    keygens, patches, cracks, etc., to be added to their virus-database.

04- Firewalls which are set to automatically determine connections will allow 
    apps & malware!. Avoid this by manually configuring your firewall.

05- Usually (new) torrents with many downloads and seeders in a brief period is
    suspicious! Torrents with the Skull & Crossbones icon are trusted.

06- Some people use multiple accounts and post fake comments 
    and/or files trying to spread confusion. They seldom seriously
    comment or have any torrents, or a just a few to look passable.

07- Clicking on unknown links can cause malware to be installed on your machine.
  
08- In general often there are more fake and negative comments than reliable and
    positive comments.

09- In some countries uploading/downloading copyright protected material is 
    forbidden, but showing some appreciation to reliable up-loaders is not.

10- Posting fake and negative comments or fake/infected uploads on TPB can result
    in getting banned from TPB!

Requests?  Find me on SuprBay. http://forum.suprbay.org
 

For reporting bad or suspicious torrents:  
http://forum.suprbay.org/forumdisplay.php?fid=29

For more of my torrents: 
https://thepiratebay.org/user/big_dad_e/  (Secured)

All torrents scanned with:
Norton Anti-virus
Malwarebytes' Anti-malware
 
http://www.pirate-party.us/

ALWAYS SEED & THANKS SEEDERS!